<?xml version="1.0" encoding="UTF-8"?>
<svg id="Calque_2" data-name="Calque 2" xmlns="http://www.w3.org/2000/svg" xmlns:xlink="http://www.w3.org/1999/xlink" viewBox="0 0 1952.63 502.17">
  <defs>
    <style>
      .cls-1, .cls-2, .cls-3 {
        fill: none;
      }

      .cls-4 {
        fill: url(#linear-gradient-8);
      }

      .cls-5 {
        fill: url(#linear-gradient-7);
      }

      .cls-6 {
        fill: url(#linear-gradient-5);
      }

      .cls-7 {
        fill: url(#linear-gradient-6);
      }

      .cls-8 {
        fill: url(#linear-gradient-9);
      }

      .cls-9 {
        fill: url(#linear-gradient-4);
      }

      .cls-10 {
        fill: url(#linear-gradient-3);
      }

      .cls-11 {
        fill: url(#linear-gradient-2);
      }

      .cls-2 {
        stroke: #7f2b20;
      }

      .cls-2, .cls-3 {
        stroke-miterlimit: 10;
      }

      .cls-12 {
        fill: url(#linear-gradient);
      }

      .cls-13 {
        fill: #ff6f2b;
      }

      .cls-14 {
        font-family: Varino-Bold-Regular, Varino;
        font-size: 235.07px;
      }

      .cls-14, .cls-15 {
        fill: #fff;
      }

      .cls-16 {
        clip-path: url(#clippath-1);
      }

      .cls-3 {
        stroke: #c63428;
      }

      .cls-17 {
        fill: #ffac3c;
      }

      .cls-18 {
        fill: #552517;
      }

      .cls-19 {
        fill: url(#linear-gradient-10);
      }

      .cls-20 {
        fill: url(#linear-gradient-11);
      }

      .cls-21 {
        fill: url(#linear-gradient-12);
      }

      .cls-22 {
        fill: #432a23;
      }

      .cls-23 {
        fill: #ff452e;
      }

      .cls-24 {
        fill: #e23726;
      }

      .cls-25 {
        letter-spacing: -.06em;
      }

      .cls-26 {
        letter-spacing: -.05em;
      }

      .cls-27 {
        letter-spacing: -.05em;
      }

      .cls-28 {
        letter-spacing: -.04em;
      }

      .cls-29 {
        letter-spacing: -.03em;
      }

      .cls-30 {
        clip-path: url(#clippath);
      }
    </style>
    <clipPath id="clippath">
      <path class="cls-1" d="M132.43,152.6c-4.97,5.14-10.51,12.6-9.6,20.17,1.03,7.64,11.09,11.73,16.69,5.88,3.67-3.83,1.2-9.7.22-14.11-1.58-7.09.59-13.88,2-21,.07-.38,0-.63-.21-.76-.18-.11-.42-.08-.56.08l-8.54,9.74Z"/>
    </clipPath>
    <linearGradient id="linear-gradient" x1="227.29" y1="80.87" x2="237.87" y2="80.87" gradientUnits="userSpaceOnUse">
      <stop offset="0" stop-color="#ff842d"/>
      <stop offset=".43" stop-color="#ffbe41"/>
      <stop offset="1" stop-color="#ef3b2b"/>
    </linearGradient>
    <clipPath id="clippath-1">
      <path class="cls-1" d="M255.66,155.32c.19,3.05-.25,5.95-1.34,8.71-.65,1.66-1.9,3.63-2.8,5.45-1.41,2.85,2.47,3.8,4.3,4.16,2.36.46,4.65-.42,6.16-2.25,5.73-6.93-1.58-16.26-6.84-20.61-.12-.1-.29,0-.26.15l.78,4.38Z"/>
    </clipPath>
    <linearGradient id="linear-gradient-2" x1="107.52" y1="129.85" x2="124.48" y2="129.85" gradientUnits="userSpaceOnUse">
      <stop offset=".08" stop-color="#d33625"/>
      <stop offset=".51" stop-color="#ff7341"/>
      <stop offset="1" stop-color="#e53930"/>
    </linearGradient>
    <linearGradient id="linear-gradient-3" x1="181.56" y1="160.56" x2="181.59" y2="160.56" xlink:href="#linear-gradient"/>
    <linearGradient id="linear-gradient-4" x1="156.44" y1="85.84" x2="189.69" y2="85.84" xlink:href="#linear-gradient"/>
    <linearGradient id="linear-gradient-5" x1="122.72" y1="162.06" x2="141.76" y2="162.06" xlink:href="#linear-gradient"/>
    <linearGradient id="linear-gradient-6" x1="251.23" y1="162.26" x2="264.08" y2="162.26" xlink:href="#linear-gradient-2"/>
    <linearGradient id="linear-gradient-7" x1="82.94" y1="275.32" x2="102.45" y2="275.32" xlink:href="#linear-gradient-2"/>
    <linearGradient id="linear-gradient-8" x1="106.01" y1="207.26" x2="229.19" y2="207.26" gradientUnits="userSpaceOnUse">
      <stop offset=".08" stop-color="#ff9f56"/>
      <stop offset=".52" stop-color="#fff977"/>
      <stop offset="1" stop-color="#f66d38"/>
    </linearGradient>
    <linearGradient id="linear-gradient-9" x1="177.43" y1="299.46" x2="127.02" y2="359.82" gradientUnits="userSpaceOnUse">
      <stop offset=".02" stop-color="#ffbe41"/>
      <stop offset=".74" stop-color="#ff842d"/>
    </linearGradient>
    <linearGradient id="linear-gradient-10" x1="167.26" y1="292.7" x2="229.02" y2="243.23" gradientUnits="userSpaceOnUse">
      <stop offset=".14" stop-color="#ffbe41"/>
      <stop offset=".9" stop-color="#ef3b2b"/>
    </linearGradient>
    <linearGradient id="linear-gradient-11" x1="185.44" y1="300.18" x2="255.54" y2="300.18" xlink:href="#linear-gradient"/>
    <linearGradient id="linear-gradient-12" x1="101.58" y1="220.56" x2="237.54" y2="220.56" xlink:href="#linear-gradient-2"/>
  </defs>
  <g id="Layer_1" data-name="Layer 1">
    <g>
      <text class="cls-14" transform="translate(425.18 441.52) scale(.94 1)"><tspan class="cls-29" x="0" y="0">H</tspan><tspan class="cls-27" x="201.92" y="0">o</tspan><tspan class="cls-25" x="416.07" y="0">t</tspan><tspan class="cls-26" x="592.13" y="0">C</tspan><tspan class="cls-29" x="788.18" y="0">od</tspan><tspan class="cls-28" x="1208.95" y="0">e</tspan><tspan x="1408.52" y="0">s</tspan></text>
      <g>
        <path class="cls-15" d="M260.97,240.47c-1.2-5.89-3.16-12.26-5.07-17.9-2.33-6.87-5.76-13.73-9.64-19.84-2.71-4.28-5.94-7.46-9.22-10.96-.06-.06-.17-.03-.18.05l-.03.15c-.04.21,0,.41.12.59,5.97,9.14,8.99,19.62,9.74,30.43.64,9.05-.41,16.9-2.84,26.2l-1.31,5.13c-.2.77-.41.77-.65,0,0-.03,0-.25.04-.66.74-8.16.86-17.28-.96-25.31-1.48-6.54-3.56-12.84-6.43-18.9-1.16-2.45-2.31-4.89-3.46-7.34-1.35-2.52-2.73-5.07-4.15-7.64-.24-.44-.74-.85-.34-1.43.66-.99,1.06-1.65,1.2-1.98,1.78-3.97,3.77-7.89,4.97-12.11,4.36-12.4,6.33-25.09,5.9-38.08-.14-4.35-.56-9.6-1.25-15.73-.45.85-.67,1.85-.65,3.01.02,1.14-.02,1.98-.1,2.52-.87,5.52-1.12,11.08-2.17,16.53-.45,2.31-1.16,5.58-2.13,9.81-2.32,10.03-5.79,19.48-10.42,28.35-2.36,4.52-5,8.55-7.92,12.1-5.37,6.98-11.58,13.1-18.63,18.38-4.05,3.09-8.32,5.88-12.44,8.87-7.44,5.39-15.54,10.02-23.37,14.82-7.5,4.81-14.25,9.9-20.24,15.26-3.23,2.89-6.37,6.34-9.42,10.35-3.39,4.19-6.25,8.77-8.59,13.72-2.02,4.28-3.74,8.7-5.15,13.26-.89,2.83-1.51,5.66-1.89,8.5-.88,6.7-1.01,13.45-.4,20.23l.12.04c.52,4.77,1.77,9.34,3.78,13.69l-.11.06c.89,2.26.78,2.8-.35,1.64-.7-.02-1.29-.27-1.75-.87-.49-.64-1.01-1.25-1.56-1.84-.19-.2-.19-.27-.01-.21.02.04.06.09.12.15.55.59,1.07,1.2,1.56,1.84.46.6,1.05.85,1.75.87l-1.74-2.26c-.05,0-.1,0-.14,0-2.58-3.53-4.65-7.38-6.22-11.55-3.53-9.43-5.4-18.55-5.17-28.25.09-3.86.14-6.07.14-6.62.05-4.8.58-9.55,1.59-14.25.51-4.59,1.75-8.92,3.73-12.97.12-.72-.08-1.22-.6-1.48-.13-.06-.23-.17-.29-.29-.17-.35-.36-.69-.56-1.03-.05-.08-.11-.12-.19-.11-.07,0-.12-.03-.15-.09-1.15-2.38-1.37-4-1.5-6.7-.02-.41.19-.86.07-1.34-.03-.14-.04-.27,0-.41.18-.86.44-1.71.77-2.52.1-.24.24-.46.42-.65.1-.1.17-.22.21-.36.36-1.12.88-2.16,1.57-3.09.14-.19.25-.41.32-.67.07-.24.16-.48.26-.72.14-.31.07-.52-.21-.61-1.45,2.65-2.77,5.33-3.97,8.04,0,0-.63,1.42-1.22,2.86-4.27,10.4-6.17,20.15-6.17,20.15-1.96,10.09-2.02,18.22-1.54,24.68.31,4.17,1.36,8.56,2.22,12.95.04.2,0,.37-.14.51l-.11.14c-.08.09-.22.05-.24-.07-.61-3.3-1.46-6.9-2.54-10.81-1.31-4.76-2.03-9.68-2.25-14.61-.12-2.56-.1-5.13.02-7.7.06-1.26,1.11-5.24-.08-6.1-.28,2.62-.56,5.24-.84,7.86-.71,6.67-1.04,11.13-1.02,14.94.05,12.98,5.13,24.54,5.56,25.53-.47-.37-1.27-.87-1.99-1.72-8.49-9.99-12.42-23.82-11.43-36.76.41-5.34.98-9.99,1.71-13.96.94-5.07,2.97-10.08,4.81-14.94.5-1.33.19-2.72,1.13-4.02.49-.68.81-1.2.96-1.55.49-1.23,1.01-2.46,1.54-3.67,1.35-3.08,3.67-5.85,5.59-8.64.03-.04.09-.03.1.01.05.15.43.03,1.13-.34.08-.53.09-1.02,0-1.49-.05-.29-.41-.39-.61-.17-5.96,6.89-10.5,15.01-14.26,22.95-3.37,7.12-5.74,15.35-7.19,23.22-.43,2.37-.69,4.63-.77,6.79-.59,15.97,7.55,32.49,17.19,45.14,7.01,9.2,14.49,18.08,21.82,27.03,6.18,7.77,12.39,15.52,18.63,23.26,2.63,3.26,5.28,6.51,7.95,9.76,1.58,1.93,3.06,4.11,4.62,6.16.15-.13.21-.29.15-.47-.02-.07-.06-.11-.11-.13-.05-.01-.1,0-.15.06-.03.04-.05.03-.05-.02v-.2c0-.06.07-.09.11-.04.22.27.5.37.83.29.16-.04.31,0,.45.09,1.16.83,1.89,1.49,2.22,1.99.67,1.02,1.2,1.76,1.59,2.23.11.13.27.2.48.19.15,0,.2-.07.15-.21-.04-.11-.11-.21-.21-.28-.06-.04-.1-.09-.12-.14-.07-.15-.04-.17.1-.05.85.71,1.59,1.53,2.21,2.46.27.41.58.76.95,1.06.36.3.69.63,1.01.97.77.83,1.81,1.06,2.44,1.88.32.41.6.85.85,1.31.05.09.02.14-.08.14h-.19c-.14,0-.26-.03-.38-.1l-.61-.42c-.07-.04-.15-.03-.2.03-.05.06-.05.14,0,.2.34.37.66.74.97,1.1.3.35.69.6,1.15.75.93.3,2.84.65,3.53,1.24.2.17.42.34.66.5.08.06.17.09.27.1l2.02.18c.06,0,.07-.02.04-.07-.04-.07-.06-.15-.06-.24,0-.14-.05-.24-.16-.33-.1-.08-.2-.17-.31-.29-.17-.18-.13-.28.12-.29l7.19-.4c.16,0,.31-.06.45-.15.4-.28.81-.52,1.24-.74.52-.26.91-.48,1.15-.67,1.1-.84,2.09-1.79,2.97-2.86.07-.09.13-.08.18.03l.05.12s.02.03.03,0c.17-.64.55-1.12,1.13-1.43.1-.05.1-.1,0-.16-.04-.02-.08-.04-.11-.06-.04-.02-.05-.07-.02-.1.17-.17.37-.26.59-.28.17-.02.31-.1.41-.24.38-.55.54-1.14.48-1.78-.01-.17.04-.2.17-.09l.29.24s.07.1.08.16l.04,1.21c1.03-13.22,7.09-24.48,14.73-34.79,1.44-1.94,3.18-3.86,4.78-5.78,1.34-1.61,2.59-3.01,3.75-4.18,5.65-5.76,10.11-9.7,17.11-15.78,3.62-3.15,7.59-7.12,11.9-11.91,2.24-2.49,4.24-5.24,6.3-7.95,17.86-23.57,23.96-51.98,18.05-81.15ZM123.67,315.45c-.28,1.03-.42,2.16-.7,3.26-.06.24-.14.4-.25.5-.16.14-.41.05-.45-.17-.29-2.13-.38-4.25-.26-6.37,1.19-21.39,9.08-40.89,25.94-55,4.83-4.2,8.47-7.17,10.91-8.9,3.58-2.54,7.16-5.09,10.74-7.64,2.28-1.62,4.99-3.26,7.44-4.97l1.58-.96c.17-.1.39.02.39.22.03,3.44.1,6.92.21,10.43.05,1.48-.86,1.25-1.73,1.93-11.58,8.98-23.15,19.4-33.2,30.67-7.21,8.09-13.97,17.87-18.1,28.1-1.1,2.73-1.71,5.89-2.51,8.87ZM150.39,369.73c-.91,3.91-.55,7.31-.55,11.24-3.83-3.92-7.35-7.99-10.55-12.2-4.62-6.08-8.33-12.31-9.57-19.99-1.2-7.4-1.27-14.81-.21-22.24.9-6.32,2.29-12.58,4.96-18.37,4.25-10.48,10.49-18.91,17.97-27.23,7.23-8.04,14.2-14.18,21.56-21.04,1.35-1.26,2.84-2.34,4.06-3.74.37-.42.8-.77,1.29-1.03l.08,15.54v13.53s-.23,46.04-.23,46.04c0,.37-.17.72-.46.95-1.5,1.19-3.07,2.37-4.46,3.67-10.64,9.95-20.46,20.28-23.9,34.88ZM179,377.02c-1.54,2.29-2.97,4.72-4.28,7.3l-1.9,4.01-1.88,4.16c.05.6-.11,1.12-.49,1.56-.09.1-.12.22-.1.35.05.26-.04.47-.28.62-.11.07-.17.19-.16.31.01.33-.07.61-.27.85-.11.14-.16.28-.17.45-.01.36-.12.69-.31.97-.08.12-.13.24-.15.39-.24,1.63-.82,2.96-1.75,3.98-.23.36-.41.85-.56,1.46-.07.27-.18.47-.33.58-.16.12-.38.06-.47-.11-2.79-5.6-5.69-10.6-7.3-17.05-1.01-4.04-1.32-8.11-.93-12.23l1.1-6.24c3.29-10.66,9.8-19.05,17.75-26.77.93-.9,1.71-1.83,2.55-2.79.27-.32.41-.27.41.15.04,11.34,0,22.77-.1,34.29,0,1,.34,2.67-.38,3.75ZM184.39,242.41l.18-11.17c1.17-.53,1.9-.89,2.19-1.06,6.55-3.95,13.42-8.58,18.82-14.02,2.98-3.01,5.44-4.97,8.07-7.68.16-.16.42,0,.35.22l-.07.21c-2.07,3.17-4.05,5.93-5.96,8.26-8.01,9.84-15.22,17.06-23.17,25.42-.27.29-.41.24-.41-.17ZM254.1,273.41l-1.82,8.58c.22.9.05,1.55-.5,1.95l-.8,2.71-1.56,4.63c-4.56,11.72-11.33,22.9-19.5,31.62l-15.69,14.77c-7.28,6.34-14.09,13.24-20.45,20.69l-8.19,10.66-.21-17.2-.07-18.88c0-.21.1-.41.26-.53,13.27-10.23,27.29-20.08,38.04-32.62l.55-.64,3.66-4.32c6.33-7.67,11.55-16.67,15.9-25.6l4.04-9.59c3.2-8.99,4.97-18.25,6-27.96,0-.01.03-.07.08-.17.02-.05.06-.07.11-.06.03,0,.05.03.06.07.49,3.53.34,7.03.7,10.82.98,10.36,1.12,20.9-.61,31.07Z"/>
        <path class="cls-15" d="M234.56,245.72c-.1-1.8,0-3.56-.12-5.34-.15-2.13-.16-4.2-.45-6.32s-.65-4.42-1.03-6.63c-.77-4.4-1.7-8.78-2.78-13.12-1.42-5.66-2.83-11.38-4.98-16.81-1.27,1.94-2.03,4.16-2.89,6.31-1.25,3.13-2.68,6.22-4.27,9.19-.22.42-.45.83-.68,1.24-1.25,2.21-2.46,4.32-3.64,6.32l-2.67,4.22c-4.14,6.11-8.9,11.73-14.28,16.85-.76.82-2.26,2.26-4.52,4.32-2.65,2.41-5.3,4.73-7.94,6.94-.22.18-.33.42-.33.71l.03,43.34.03,30.54c0,.11.13.17.21.1,1.46-1.17,3.08-2.26,4.45-3.37,3.69-2.96,7.74-6.02,11.02-8.9,7.27-6.36,13.69-12.99,19.36-20.5,3.55-4.65,6.57-9.6,9.07-14.85,3.29-8.37,5.54-17.45,6.08-26.43.16-2.6.46-5.21.32-7.82Z"/>
        <g class="cls-30">
          <path class="cls-2" d="M122.82,172.76l.02-.59c0-.11.05-.14.14-.06.04.03.08.07.12.11.07.07.13.17.16.28.68,2.47,1.95,4.54,3.84,6.21.31.27.7.49,1.17.67,1.18.44,1.97.97,3.22,1.07,1.23.11,2.47.13,3.7.05.94-.06,1.47-.6,2.23-1.06.61-.38,1.1-.73,1.45-1.06.64-.59,1.02-1.06,1.14-1.41,1.33-3.98.04-7.41-.79-11.93-.14-.75-.54-1.34-.63-2.14-.17-1.31-.46-2.71-.34-4.01.05-.59.13-1.17.23-1.75.23-1.25.45-2.51.66-3.77.17-1.02.1-1.98.09-3,0-.15-.08-.25-.23-.3-.69-.19-1.22-.65-1.9-.61-.69.04-1.26.32-1.71.83-.95,1.06-1.93,1.82-2.96,2.29"/>
        </g>
        <path class="cls-24" d="M142.55,52.93c.39.32.4.91.02,1.24-2.08,1.82-6.25-.17-7.68-2.16-2.48-3.46-.62-8.46,2.13-11.23.3-.3.6-.44.9-.44.19,0,.31.2.23.37-.82,1.69-1.11,3.45-.87,5.3.44,3.35,2.88,4.94,5.27,6.91Z"/>
        <path class="cls-12" d="M237.77,82.82c-1.13-4.83-6.49-7.32-10.26-10.06-.1-.07-.23,0-.22.13l.21,1.73c-.17,2.82-.2,8.11,1.01,10.45.7,1.36,2.59,3.93,4.18,3.94,2.12,0,3.68-1.11,4.66-3.36.5-.95.65-1.89.42-2.83Z"/>
        <path class="cls-24" d="M126.16,78.95c-3.56,5.29-4.21,14.7-1.03,20.29.06.1-.04.21-.14.18-3.94-1.18-8.9-4.58-8.7-9.24.23-5.28,5.37-9.91,9.72-12.2.16-.07.33-.11.51-.11.14,0,.2.07.16.21-.09.33-.27.62-.52.86Z"/>
        <g class="cls-16">
          <path class="cls-3" d="M261.99,171.39c.79-2.1,1.19-4.22,1.21-6.37,0-1.1-.51-1.53-.67-2.5-.02-.12-.08-.22-.17-.31-.32-.27-.57-.59-.76-.96-.05-.11-.13-.2-.23-.27-.11-.08-.2-.19-.25-.31-.06-.14-.14-.25-.26-.34-.31-.25-.65-.4-1.03-.47-.14-.02-.26-.07-.37-.15l-2.68-1.81c-.16-.11-.24-.31-.21-.5.02-.12,0-.22-.04-.31-.07-.14-.14-.14-.21.01-.09.21-.13.43-.11.66,0,0,0,0-.02,0,0,0-.02,0-.03,0-.03,0-.04-.02-.03-.04.09-.87-.07-1.67-.47-2.42"/>
        </g>
        <path class="cls-11" d="M122.27,132.33c-1.31-3.4-2.02-6.91-2.1-10.52-.05-2.17.39-4.42.77-6.63.2-1.17.45-2.02.73-2.55.66-1.25.47-1.38-.57-.39-5.52,5.23-9.96,11.16-12.52,18.43-2.42,6.87-.86,14.73,6.83,17.09,5.35,1.65,8.98-2.52,9.08-7.46.05-2.57-1.23-5.44-2.21-7.97Z"/>
        <g>
          <path class="cls-10" d="M181.58,160.26c-.01.2-.02.4-.01.61.03-.23.03-.43.01-.61Z"/>
          <path class="cls-9" d="M189.52,139.7c-.27-3.04-.82-5.9-1.65-8.6-2.6-8.56-6.43-16.88-9.89-25.29-3.46-9.33-4.94-19.53-2.84-29.02,1.07-4.86,3.24-9.52,6.49-13.98,2.79-3.83,5.07-8.36,6.82-13.59,1.06-4.61,1.44-8.88,1.13-12.81-1-12.6-5.07-24.42-12.2-35.46-.28-.43-.59-.73-.93-.91-.21-.11-.3-.05-.24.19l1.25,5.35c1.47,7.89,1.5,16.59.73,24.5-.61,7.39-3.33,12.6-7.34,18.67-2.19,3.32-5.34,7.03-7.03,9.66-2.37,3.69-4.2,7.59-5.49,11.69-.18.57,0,.71.57.41.15-.08.41-.31.76-.67,1.7-1.77,3.38-3.54,5.06-5.32,2.18-2.32,5.29-5.16,7.68-7.96.6-.69.83-.59.69.32-.03.18-.19.52-.5,1.03-1.84,3.01-3.64,6.03-5.41,9.08-2.25,3.86-3.86,7.66-5.56,12.09-2.48,6.45-4.86,13.94-5.14,20.68-.28,6.69,1.11,13.23,3.58,19.44.74,1.86,2.55,5.54,5.44,11.03l.99,1.97,1.12,2.54c2.18,4.98,3.48,9.5,3.9,13.58.71,7.02-.03,14.47-2.23,22.34-.08.29-.14.56-.17.8-.02.15.15.25.27.17,2.37-1.7,5.01-3.39,6.94-5.33,1.85-1.87,3.49-3.96,4.9-6.27.09-.15.32-.11.36.06.01.05.01.1.02.15.16-2.86,1.86-5.32,3.92-7.46l1.06-1.51c.11-.16.21-.15.31.01.08.14.08.4,0,.77.23-.98.44-1.75.91-2.72,1.44-2.93,2.02-6.06,1.74-9.39-.02-.09-.02-.18,0-.25Z"/>
        </g>
        <path class="cls-6" d="M141.53,142.78c-.18-.11-.42-.08-.56.08l-8.54,9.74c-4.97,5.14-10.51,12.6-9.6,20.17,1.03,7.64,11.09,11.73,16.69,5.88,3.67-3.83,1.2-9.7.22-14.11-1.58-7.09.59-13.88,2-21,.07-.38,0-.63-.21-.76Z"/>
        <path class="cls-15" d="M186.87,152.06c-.77,5.98-.59,11.37-.54,18.01,0,.35-.14.74-.11,1.17l-4.91,3.46c-.27-.02-.34-.22-.24-.61l.5-13.23c-.07-3.12,1.73-5.78,3.93-8.07l1.06-1.51c.11-.16.21-.15.31.01.08.14.08.4,0,.77Z"/>
        <path class="cls-7" d="M255.15,150.79c-.12-.1-.29,0-.26.15l.78,4.38c.19,3.05-.25,5.95-1.34,8.71-.65,1.66-1.9,3.63-2.8,5.45-1.41,2.85,2.47,3.8,4.3,4.16,2.36.46,4.65-.42,6.16-2.25,5.73-6.93-1.58-16.26-6.84-20.61Z"/>
        <path class="cls-23" d="M72.4,165.26c1.61,1.74,2.55,4.82,3.13,7.07.65,2.51.75,5.39.27,8.62-.52,3.6-3.7,6.99-7.57,7.09-3.01.07-5.55-2.05-5.77-5.15-.29-4.08,5.33-7.86,7.95-10.5,2.2-2.21,2.01-4.18,1.81-7.06-.01-.19.04-.21.17-.07Z"/>
        <path class="cls-24" d="M97.23,201.81c-1.55,4.69-2.05,9.79-1.71,14.7.18,2.6.96,4.96,2.34,7.08.13.19-.03.45-.26.42-5.28-.47-10.34-3.98-10.13-9.83.19-5.44,5.03-10.17,9.39-12.68.37-.21.49-.11.36.29Z"/>
        <path class="cls-5" d="M102.45,230.55c-.71,2.99-1.48,5.95-2.31,8.87-1.99,7-3.52,14.12-4.47,21.3-.89,6.75-1.9,13.17-2.57,19.94-.15,1.5-.45,2.98-.67,4.47-1.37,9.33.38,18.81,2.83,27.96.54,2.03,1.16,3.46,1.44,4.1.58,1.29,1.15,2.29,1.52,2.9-.15-.08-.3-.16-.45-.24l-1.65-1.56c-9.67-10.45-14.14-24.91-13.02-38.45.46-5.58,1.11-10.45,1.95-14.6,1.07-5.31,3.38-10.54,5.48-15.63.57-1.39.21-2.84,1.29-4.2.56-.71.92-1.25,1.09-1.62.56-1.29,1.15-2.57,1.76-3.84,1.54-3.22,4.18-6.12,6.37-9.04.03-.04.1-.03.12.01.06.16.49.04,1.28-.35Z"/>
        <path class="cls-4" d="M229.1,141.15l-.13-.1c-.12-.09-.28-.05-.35.08-2.34,4.53-4.65,8.1-6.93,10.71-3.36,3.83-6.67,7.64-10.24,11.3-5.67,5.79-11.31,11.56-17.14,17.2l-14.5,12.74-6.87,5.56-2.98,2.34-6.47,4.98-16.88,13.3-6.79,5.72-4.51,3.88c-3.93,3.68-7.68,7-11.46,11.26l-4.46,5.24c-3.89,4.56-7.11,9.54-9.66,14.93-1.98,4.05-3.22,8.37-3.73,12.97l.24.2c.13.11.22.08.28-.07.48-1.2,1.47-2.12,2.01-3.01,1.03-1.7,2.04-3.4,3.03-5.12,4.52-7.85,10.02-15.09,16.22-21.51.8-.83,2.6-2.62,5.39-5.37l13.83-11.95,31.05-24.31c9.17-7.36,17.93-15.52,26.14-24.16,4.17-4.39,7.03-7.58,8.58-9.57,3.97-5.08,6.87-9.13,8.71-12.13,1.44-2.34,3.7-6.54,6.79-12.58.37-.72.6-1.51.87-2.26.03-.1,0-.18-.07-.24Z"/>
        <path class="cls-22" d="M306.39,279.99l-.11-.23s-.04-.04-.04,0c0,.07-.06.1-.14.12-.11-.43-.09-.7.06-.81.11-.08.19-.06.26.06.11.19.1.48-.03.86Z"/>
        <path class="cls-22" d="M309.09,280l.35,3.52c0,.22-.03.39-.09.49-.06.1-.09.1-.09-.02l-.17-3.99Z"/>
        <path class="cls-18" d="M252.39,281.94c.22.9.05,1.55-.5,1.95l.5-1.95Z"/>
        <path class="cls-17" d="M227.94,294.77l-.12,1.43c0,.14-.06.25-.15.34l-.9.96c-.12.13-.18.1-.19-.07,0-.06,0-.11.03-.17.01-.03,0-.04-.02-.01l-.35.3c-.1.09-.18.19-.24.31-.31.63-.74,1.18-1.29,1.64-.14.12-.25.11-.34-.03-.02-.04-.03-.09-.02-.14.02-.11,0-.19-.06-.25l3.66-4.32Z"/>
        <g>
          <path class="cls-8" d="M179.47,255.07c-.49.26-.92.61-1.29,1.03-1.21,1.39-2.71,2.47-4.06,3.74-7.37,6.87-14.33,13-21.56,21.04-7.49,8.32-13.72,16.75-17.97,27.23-2.67,5.79-4.06,12.05-4.96,18.37-1.06,7.43-.99,14.85.21,22.24,1.24,7.68,4.95,13.91,9.57,19.99,3.2,4.22,6.72,8.29,10.55,12.2,0-3.93-.36-7.33.55-11.24,3.44-14.6,13.26-24.93,23.9-34.88,1.39-1.3,2.97-2.49,4.46-3.67.29-.23.45-.58.46-.95l.24-46.04v-13.53s-.1-15.54-.1-15.54Z"/>
          <path class="cls-19" d="M234.56,245.74c-.1-1.8,0-3.56-.12-5.34-.15-2.13-.16-4.2-.45-6.32s-.65-4.42-1.03-6.63c-.77-4.4-1.7-8.78-2.78-13.12-1.31-5.24-2.7-10.55-4.53-15.62-.19-.52-.35-.94-.45-1.21-.2.29-.39.59-.59.88-2.19,5.29-4.44,10.9-7.26,15.89-1.25,2.21-2.46,4.32-3.64,6.32l-2.67,4.22c-4.14,6.11-8.9,11.73-14.28,16.85-.76.82-2.26,2.26-4.52,4.32-2.65,2.41-5.3,4.73-7.94,6.94-.22.18-.33.42-.33.71l.03,43.34.03,30.54c0,.11.13.17.21.1,1.46-1.17,3.08-2.26,4.45-3.37,3.69-2.96,7.74-6.02,11.02-8.9,7.27-6.36,13.69-12.99,19.36-20.5,3.55-4.65,6.57-9.6,9.07-14.85,3.29-8.37,5.54-17.45,6.08-26.43.16-2.6.46-5.21.32-7.82Z"/>
        </g>
        <path class="cls-20" d="M254.82,242.29c-.36-3.79-.21-7.28-.7-10.82,0-.03-.02-.06-.06-.07-.05-.01-.09,0-.11.06-.05.1-.08.16-.08.17-1.03,9.71-2.79,18.96-6,27.96l-4.04,9.59c-4.34,8.92-9.56,17.93-15.9,25.6l-.12,1.43c0,.14-.06.25-.15.34l-.9.96c-.12.13-.18.1-.19-.07,0-.06,0-.11.03-.17.01-.03,0-.04-.02-.01l-.35.3c-.1.09-.18.19-.24.31-.31.63-.74,1.18-1.29,1.64-.14.12-.25.11-.34-.03-.02-.04-.03-.09-.02-.14.02-.11,0-.19-.06-.25l-.55.64c-10.75,12.54-24.77,22.39-38.04,32.62-.17.13-.26.32-.26.53l.07,18.88.21,17.2,8.19-10.66c6.35-7.45,13.17-14.35,20.45-20.69l15.69-14.77c8.17-8.71,14.94-19.9,19.5-31.62l1.56-4.63.8-2.71.5-1.95,1.82-8.58c1.73-10.18,1.59-20.71.61-31.07Z"/>
        <path class="cls-13" d="M179.6,338.92c0-.42-.14-.47-.41-.15-.84.96-1.62,1.89-2.55,2.79-7.95,7.71-14.47,16.1-17.75,26.77l-1.1,6.24c-.39,4.12-.08,8.2.93,12.23,1.61,6.44,4.51,11.45,7.3,17.05.09.17.31.23.47.11.15-.12.27-.31.33-.58.15-.61.34-1.1.56-1.46.99-3.31,2.21-6.47,3.68-9.49l1.88-4.16,1.9-4.01c1.31-2.58,2.74-5.01,4.28-7.3.73-1.08.38-2.75.38-3.75.11-11.52.14-22.95.1-34.29Z"/>
        <circle class="cls-15" cx="266.29" cy="395.11" r="6.55"/>
        <path class="cls-15" d="M189.2,418.78c-1.13,1.56-3.94,4.59-3.59,6.6.03.17.21.27.37.2.34-.14.64-.38.89-.72,13.19-17.38,29.86-32.2,47.88-44.41.67-.45,1.18-.76,1.54-.93.04-.02.06-.05.03-.1l-.05-.1c-.05-.11-.13-.14-.24-.09-1.27.52-2.63,1.26-4.1,2.21-3.81,2.47-8.5,5.07-12.13,7.58-12.09,8.35-21.95,17.77-30.61,29.76ZM42.81,340.55c.11.23.04.31-.21.24-5.22-1.62-9.58-4.19-14.12-7.58-5.72-4.28-10.5-9.45-14.29-15.53-.97-1.56-1.91-3.13-2.83-4.71-.15-.26-.28-.42-.4-.48-.28-.17-.38-.09-.29.24,1.11,4.07,3,7.96,5.89,13.91,1.41,2.9,3.36,6.21,5.06,8.72,3.03,4.47,6.25,8.32,9.68,11.55,20.44,19.3,49.86,19.03,73.18,32.86,14.79,8.78,27.83,20.03,38.69,33.51,4.83,6,7.87,10.97,11.48,16.79,1.44,2.32,2.67,4.77,3.98,7.2.04.08.16.1.23.04l.09-.07c.12-.1.15-.27.08-.41-.5-1.05-.78-1.73-.85-2.02-.52-2.23-1.22-4.4-2.1-6.52-3.47-8.29-7.78-16.13-12.93-23.5-2.81-4.03-5.33-7.17-7.57-9.44-2.37-2.4-4.69-5.07-7.06-7.19-13.63-12.24-29.57-21.21-44.84-31.15-5.18-3.38-8.73-5.75-10.64-7.11-11.16-7.97-21.57-17.55-29.16-29.04-3.27-4.95-5.78-9.65-7.53-14.11-3.64-9.26-5.28-17.7-6.11-26.87-.23-2.53-.44-2.53-.64,0-.08,1.02-.26,2.54-.23,3.82.16,5.99.15,12.33.93,18,1.12,8.23,2.91,16.6,6.07,24.33,2.02,4.94,4.17,9.78,6.44,14.53M148.15,395.64c.15-.13.21-.29.15-.47-.02-.07-.06-.11-.11-.13-.05-.01-.1,0-.15.06-.03.04-.05.03-.05-.02v-.2c0-.06.07-.09.11-.04.22.27.5.37.83.29.16-.04.31,0,.45.09,1.16.83,1.89,1.49,2.22,1.99.67,1.02,1.2,1.76,1.59,2.23.11.13.27.2.48.19.15,0,.2-.07.15-.21-.04-.11-.11-.21-.21-.28-.06-.04-.1-.09-.12-.14-.07-.15-.04-.17.1-.05.85.71,1.59,1.53,2.21,2.46.27.41.58.76.95,1.06.36.3.69.63,1.01.97.77.83,1.81,1.06,2.44,1.88.32.41.6.85.85,1.31.05.09.02.14-.08.14h-.19c-.14,0-.26-.03-.38-.1l-.61-.42c-.07-.04-.15-.03-.2.03-.05.06-.05.14,0,.2.34.37.66.74.97,1.1.3.35.69.6,1.15.75.93.3,2.84.65,3.53,1.24.2.17.42.34.66.5.08.06.17.09.27.1l2.02.18c.06,0,.07-.02.04-.07-.04-.07-.06-.15-.06-.24,0-.14-.05-.24-.16-.33-.1-.08-.2-.17-.31-.29-.17-.18-.13-.28.12-.29l7.19-.4c.16,0,.31-.06.45-.15.4-.28.81-.52,1.24-.74.52-.26.91-.48,1.15-.67,1.1-.84,2.09-1.79,2.97-2.86.07-.09.13-.08.18.03l.05.12s.02.03.03,0c.17-.64.55-1.12,1.13-1.43.1-.05.1-.1,0-.16-.04-.02-.08-.04-.11-.06-.04-.02-.05-.07-.02-.1.17-.17.37-.26.59-.28.17-.02.31-.1.41-.24.38-.55.54-1.14.48-1.78-.01-.17.04-.2.17-.09l.29.24s.07.1.08.16l.04,1.21c-.62,3.91-.91,7.95-.84,12.11,0,.33.14.41.43.24.11-.07.24-.22.4-.46,6.97-10.67,16.84-19.54,27.6-26.26,8.49-5.3,16.49-9.3,24.03-11.99,7.13-2.55,17.41-5.37,26.37-7.77,15.47-4.13,31.29-9.49,43.01-20.94,3.49-3.41,6.71-7.22,9.65-11.44,4.25-6.36,7.8-13.55,10.7-20.61.34-.82.56-1.65.69-2.5.09-.6,0-.63-.29-.1-6.61,12.49-17.28,22.57-30.49,27.78-.37.14-.72.26-1.05.34-.15.03-.27-.13-.2-.27.66-1.21,1.24-2.46,1.75-3.73,1.6-4,3.23-7.99,4.9-11.95,1.32-3.13,2.02-7.28,2.94-10.92,1.14-4.5,1.61-9.28,2.11-14.08.67-6.42.76-13.02.22-19.41.13-.38.14-.66.03-.86-.07-.12-.15-.14-.26-.06-.15.11-.17.38-.06.81-.46,4.86-.9,8.42-1.34,10.67-.51,2.62-1.51,6.27-3,10.93-3.11,8.52-7.43,16.39-12.96,23.61-4.99,6.51-10.07,12.04-15.25,16.6-9.89,8.7-21.47,16.08-32.34,22.87-2.83,1.77-9.41,5.59-19.73,11.46-2.63,1.5-5.83,3.93-8.93,5.9-2.75,1.74-5.44,3.6-8.05,5.55-.07.05-.13.08-.2.07-.04,0-.08,0-.12-.02-.07-.03-.09-.11-.04-.17,1.93-2.62,4.59-4.88,7-7.05,1.63-1.46,3.9-3.27,6.79-5.41,6.77-5.01,13.4-10.09,20.31-15.04,3.56-2.55,7.67-5.59,12.3-9.11,20.8-15.78,40.92-38.77,47.5-64.47,1.13-4.39,1.86-7.33,1.69-11.07,0-.14-.15-.24-.28-.2-.21.07-.36.23-.46.5-2.24,5.87-6.2,8.31-11.87,10.37-.56.21-.69.05-.38-.46,1.52-2.53,3.24-5.26,4.38-7.8,3.02-6.75,4.3-13.95,3.85-21.62-.37-6.17-1.27-12.02-3.12-17.7-.41-1.25-.81-2.5-1.21-3.75-2.33-7.23-5.19-12.72-9.65-20.33-.35-.61-1.27-1.83-2.76-3.69-.07-.08-.06-.21.02-.28l.09-.08c.13-.12.32-.12.45,0,11.2,10.13,19.05,24.23,23.99,38.74,3.53,10.38,4.9,20.63,6.31,31.09l.17,3.99c0,.12.03.12.09.02.06-.1.09-.27.09-.49.33,7.53.1,14.76-.68,21.68-.61,5.47-2.37,10.87-3.78,16.32-.08.3.03.41.34.33.34-.1.7-.34,1.09-.74,12.51-12.88,20.57-29.88,21.23-47.98.54-14.77-5.72-28.43-16.51-38.61-.21-.26-.45-.5-.72-.72-.17-.15-.24-.32-.18-.51.06-.18.17-.23.33-.13l.79.47c1.7,1.36,3.61,2.65,5.14,4.04,5.76,5.23,9.87,10.67,13.31,17.53,5.11,10.17,7.56,22.45,7.51,33.78-.1,21.95-8.03,43.11-20.73,60.63-11.98,16.54-27.73,27.55-46.81,34.44-4.54,1.65-8.29,2.95-12.46,4.85-4.2,1.92-8.6,3.86-12.48,6-15.76,8.73-30.17,19.93-41.92,33.64-2.05,2.38-4.08,5.21-6.12,7.85-3.89,5.04-7.49,10.29-10.8,15.73-3.25,5.35-5.55,9.34-6.9,11.98-2.53,4.94-8.56,17.07-18.07,36.39l-.94,1.47c-.2.31-.68.25-.79-.11-.09-.3-.06-.65.09-1.06.78-6.63.96-13.18.55-19.64-.64-9.98-1.83-19.86-5.78-29.23-10.5-24.95-29.03-43.4-53.08-55.67-7.27-3.71-13.11-6.44-17.5-8.19-4.19-1.66-9.83-2.61-13.92-4.04-20.89-7.28-38.12-19.91-50.64-38.34-7.64-11.23-13.04-24.16-16.2-37.36-2.13-8.92-2.9-17.97-2.3-27.14.8-12.12,4.69-23.12,11.65-33,3.38-4.79,7.99-9.8,13.07-12.78.14-.08.32.04.28.21-.07.33-.26.64-.56.93-4.19,3.94-7.75,8.67-10.47,13.65-9.89,18.1-5.47,40.97,5.11,57.56,3.77,5.91,6.37,9.36,11.11,13.63.65.58,1.23,1.02,1.77,1.3.11.06.23-.07.16-.18-2.67-4.11-3.81-10.41-4.59-15.47-1.72-11.17-1.72-21.98.07-32.97.51-3.09.96-6.26,1.74-9.24,2.08-7.92,4.59-15.49,7.54-22.7,4.65-11.38,12.05-22.2,20.16-31.46,4.51-5.15,9.63-9.83,15.7-13.08.33-.17.59-.29.8-.36.43-.13.51,0,.26.36-.22.32-.5.64-.86.95-1.58,1.41-3.06,2.91-4.46,4.49-4.7,5.35-7.58,8.86-8.67,10.54-2.26,3.52-4.94,7.2-6.77,10.59-7.06,13.13-12.01,27.97-9.83,42.93.89,6.15,3.28,11.47,6.14,16.69.24.45.41.88.51,1.28.04.18-.12.35-.31.31-5.72-1.33-9.65-4.71-11.77-10.14-.07-.17-.25-.25-.42-.18-.21.08-.34.29-.39.62-.2,1.17-.2,2.35,0,3.53,1.13,7.12,2.48,13.4,5.41,20.52,4.51,10.92,10.66,20.68,18.61,29.4,4.13,4.53,8.04,8.33,11.71,11.37,15.46,12.83,32.78,23.41,48.48,35.52,4.88,3.77,10.17,8.24,14.55,12.66,16.14,16.31,26.92,35.75,32.36,58.32.22.94.51,1.58.87,1.93.35.35.53.28.52-.22-.02-1.27-.17-2.64-.45-4.13-1.01-5.37-2.3-10.67-3.88-15.91-1.27-4.22-3.51-9.43-6.72-15.63-2.67-5.17-6.17-10.97-10.51-17.42"/>
        <path class="cls-18" d="M171.04,392.43c.05.6-.11,1.12-.49,1.56-.09.1-.12.22-.1.35.05.26-.04.47-.28.62-.11.07-.17.19-.16.31.01.33-.07.61-.27.85-.11.14-.16.28-.17.45-.01.36-.12.69-.31.97-.08.12-.13.24-.15.39-.24,1.63-.82,2.96-1.75,3.98.99-3.31,2.21-6.47,3.68-9.49Z"/>
        <path class="cls-21" d="M237.54,125.08c-.32-5.93-1.28-11.86-2.88-17.76l-.68-2.67c-.11-.45-.74-.46-.87-.03-.03.1-.06.24-.07.42-.23,6.27-2.16,12.61-4.96,18.28-3.97,7.67-8.77,14.77-14.43,21.32l-10.85,11.87c-3.87,3.68-8.6,7.94-14.18,12.78-1.11.96-1.91,1.62-2.4,1.96l-4.91,3.46c-.27-.02-.34-.22-.24-.61-.38.62-1,1.26-1.86,1.92-8.51,6.46-17.03,12.93-25.54,19.4-2.54,1.92-4.83,3.71-6.89,5.36-6.45,5.15-12.56,10.31-15.37,12.85-4.33,3.92-12.22,11.92-21.57,26.57-.47.9-.86,1.63-1.12,2.11-.34.66-.64,1.24-.88,1.74,0,0-.57,1.15-1.11,2.31-.1.2-.19.41-.19.41s-.12.25-.23.5c-.3.65-.59,1.33-.61,1.36,0,0-.29.66-.56,1.31-.26.62-1.75,4.37-2.1,5.35-1.01,2.86-2.25,10.36-.76,19.38.36,2.19,1,5.2,2.23,8.69.97-5.68,1.93-11.37,2.9-17.05,1.24-3.62,3.09-8,5.93-12.64,2.02-3.3,4.12-6.06,6.07-8.32l4.46-5.24c3.78-4.25,7.53-7.57,11.46-11.26l4.51-3.88,6.79-5.72,16.88-13.3,6.47-4.98,2.98-2.34,6.87-5.56,14.5-12.74c5.83-5.64,11.47-11.4,17.14-17.2,3.57-3.66,6.89-7.47,10.24-11.3,2.28-2.61,4.59-6.18,6.93-10.71.07-.13.23-.17.35-.08l.13.1c.08.07.11.14.07.24-.27.75-.51,1.54-.87,2.26-3.09,6.04-5.35,10.24-6.79,12.58-1.84,3.01-4.75,7.05-8.71,12.13-1.55,1.99-4.41,5.18-8.58,9.57-8.21,8.64-16.97,16.81-26.14,24.16l-31.05,24.31-13.83,11.95c-2.8,2.75-4.59,4.54-5.39,5.37-6.2,6.42-11.7,13.66-16.22,21.51-.99,1.71-2,3.42-3.03,5.12-.54.89-1.54,1.81-2.01,3.01-.06.15-.16.18-.28.07l-.24-.2c-.28,1.29-.65,3.14-.95,5.4-.42,3.1-.51,5.51-.64,8.85-.09,2.45-.15,5-.14,6.62.03,7.99.06,18.25,4.67,28.75,1.23,2.8,3.29,6.76,6.75,11.09l1.74,2.26c1.13,1.17,1.25.62.35-1.64-2.02-4.38-3.28-8.98-3.79-13.78-.62-6.79-.48-13.53.4-20.23.38-2.84,1-5.67,1.89-8.5,1.42-4.55,3.14-8.97,5.15-13.26,2.34-4.95,5.2-9.53,8.59-13.72,3.05-4.01,6.19-7.46,9.42-10.35,5.99-5.36,12.74-10.45,20.24-15.26,7.83-4.8,15.94-9.43,23.37-14.82,4.13-2.99,8.39-5.78,12.44-8.87,7.05-5.28,13.26-11.41,18.63-18.38,2.92-3.55,5.55-7.58,7.92-12.1,4.63-8.87,8.1-18.32,10.42-28.35.98-4.24,1.69-7.51,2.13-9.81,1.05-5.45,1.3-11.01,2.17-16.53.09-.55.12-1.38.1-2.52-.02-1.15.2-2.16.65-3.01Z"/>
      </g>
    </g>
  </g>
</svg>