<?xml version="1.0" encoding="UTF-8"?>
<svg id="Calque_2" data-name="Calque 2" xmlns="http://www.w3.org/2000/svg" xmlns:xlink="http://www.w3.org/1999/xlink" viewBox="0 0 2872.6 1150.87">
  <defs>
    <style>
      .cls-1, .cls-2, .cls-3, .cls-4 {
        fill: none;
      }

      .cls-5 {
        fill: url(#linear-gradient-8);
      }

      .cls-6 {
        fill: url(#linear-gradient-7);
      }

      .cls-7 {
        fill: url(#linear-gradient-5);
      }

      .cls-8 {
        fill: url(#linear-gradient-6);
      }

      .cls-9 {
        fill: url(#linear-gradient-9);
      }

      .cls-10 {
        fill: url(#linear-gradient-4);
      }

      .cls-11 {
        fill: url(#linear-gradient-3);
      }

      .cls-12 {
        fill: url(#linear-gradient-2);
      }

      .cls-13 {
        font-family: Varino-Bold-Regular, Varino;
        font-size: 279.5px;
      }

      .cls-13, .cls-2, .cls-3, .cls-4 {
        stroke-miterlimit: 10;
      }

      .cls-13, .cls-14, .cls-15 {
        fill: #fff;
      }

      .cls-13, .cls-4 {
        stroke: #fff;
      }

      .cls-2 {
        stroke: #7f2b20;
      }

      .cls-14 {
        font-family: Poppins-Regular, Poppins;
        font-size: 81.62px;
      }

      .cls-16 {
        fill: url(#linear-gradient);
      }

      .cls-17 {
        fill: #ff6f2b;
      }

      .cls-18 {
        clip-path: url(#clippath-1);
      }

      .cls-3 {
        stroke: #c63428;
      }

      .cls-19 {
        fill: #ffac3c;
      }

      .cls-20 {
        fill: #552517;
      }

      .cls-21 {
        letter-spacing: 0em;
      }

      .cls-22 {
        fill: url(#linear-gradient-10);
      }

      .cls-23 {
        fill: url(#linear-gradient-11);
      }

      .cls-24 {
        fill: url(#linear-gradient-12);
      }

      .cls-4 {
        stroke-linecap: round;
        stroke-width: 20px;
      }

      .cls-25 {
        fill: #432a23;
      }

      .cls-26 {
        fill: #ff452e;
      }

      .cls-27 {
        fill: #e23726;
      }

      .cls-28 {
        letter-spacing: -.06em;
      }

      .cls-29 {
        letter-spacing: -.05em;
      }

      .cls-30 {
        letter-spacing: -.04em;
      }

      .cls-31 {
        letter-spacing: -.03em;
      }

      .cls-32 {
        clip-path: url(#clippath);
      }
    </style>
    <clipPath id="clippath">
      <path class="cls-1" d="M303.49,349.72c-11.4,11.79-24.08,28.87-22.01,46.22,2.36,17.5,25.41,26.88,38.25,13.47,8.4-8.77,2.75-22.23.51-32.33-3.61-16.25,1.36-31.81,4.58-48.12.17-.86.01-1.44-.47-1.74-.42-.26-.97-.19-1.29.18l-19.57,22.32Z"/>
    </clipPath>
    <linearGradient id="linear-gradient" x1="520.9" y1="185.34" x2="545.15" y2="185.34" gradientUnits="userSpaceOnUse">
      <stop offset="0" stop-color="#ff842d"/>
      <stop offset=".43" stop-color="#ffbe41"/>
      <stop offset="1" stop-color="#ef3b2b"/>
    </linearGradient>
    <clipPath id="clippath-1">
      <path class="cls-1" d="M585.93,355.96c.44,6.99-.58,13.64-3.06,19.97-1.49,3.81-4.35,8.31-6.42,12.5-3.22,6.53,5.66,8.71,9.86,9.53,5.42,1.06,10.66-.97,14.12-5.16,13.14-15.88-3.63-37.26-15.68-47.23-.27-.22-.66.01-.6.35l1.78,10.04Z"/>
    </clipPath>
    <linearGradient id="linear-gradient-2" x1="246.41" y1="297.59" x2="285.27" y2="297.59" gradientUnits="userSpaceOnUse">
      <stop offset=".08" stop-color="#d33625"/>
      <stop offset=".51" stop-color="#ff7341"/>
      <stop offset="1" stop-color="#e53930"/>
    </linearGradient>
    <linearGradient id="linear-gradient-3" x1="416.11" y1="367.97" x2="416.17" y2="367.97" xlink:href="#linear-gradient"/>
    <linearGradient id="linear-gradient-4" x1="358.52" y1="196.73" x2="434.73" y2="196.73" xlink:href="#linear-gradient"/>
    <linearGradient id="linear-gradient-5" x1="281.26" y1="371.42" x2="324.89" y2="371.42" xlink:href="#linear-gradient"/>
    <linearGradient id="linear-gradient-6" x1="575.76" y1="371.86" x2="605.22" y2="371.86" xlink:href="#linear-gradient-2"/>
    <linearGradient id="linear-gradient-7" x1="190.08" y1="630.97" x2="234.79" y2="630.97" xlink:href="#linear-gradient-2"/>
    <linearGradient id="linear-gradient-8" x1="242.96" y1="474.99" x2="525.25" y2="474.99" gradientUnits="userSpaceOnUse">
      <stop offset=".08" stop-color="#ff9f56"/>
      <stop offset=".52" stop-color="#fff977"/>
      <stop offset="1" stop-color="#f66d38"/>
    </linearGradient>
    <linearGradient id="linear-gradient-9" x1="406.64" y1="686.3" x2="291.1" y2="824.63" gradientUnits="userSpaceOnUse">
      <stop offset=".02" stop-color="#ffbe41"/>
      <stop offset=".74" stop-color="#ff842d"/>
    </linearGradient>
    <linearGradient id="linear-gradient-10" x1="383.32" y1="670.8" x2="524.86" y2="557.43" gradientUnits="userSpaceOnUse">
      <stop offset=".14" stop-color="#ffbe41"/>
      <stop offset=".9" stop-color="#ef3b2b"/>
    </linearGradient>
    <linearGradient id="linear-gradient-11" x1="424.98" y1="687.96" x2="585.65" y2="687.96" xlink:href="#linear-gradient"/>
    <linearGradient id="linear-gradient-12" x1="232.8" y1="505.47" x2="544.39" y2="505.47" xlink:href="#linear-gradient-2"/>
  </defs>
  <g id="Layer_1" data-name="Layer 1">
    <g>
      <path class="cls-15" d="M598.09,551.1c-2.74-13.49-7.24-28.09-11.62-41.02-5.33-15.74-13.21-31.47-22.09-45.48-6.22-9.81-13.61-17.09-21.12-25.12-.14-.14-.38-.07-.41.12l-.06.35c-.09.49.01.94.28,1.36,13.68,20.94,20.6,44.96,22.33,69.73,1.46,20.73-.93,38.72-6.5,60.04l-3,11.76c-.45,1.76-.95,1.76-1.49.01-.02-.07.01-.57.1-1.52,1.69-18.71,1.98-39.6-2.2-58-3.4-14.98-8.17-29.42-14.74-43.32-2.65-5.61-5.29-11.21-7.94-16.82-3.09-5.77-6.25-11.61-9.5-17.52-.55-1.01-1.69-1.94-.79-3.28,1.51-2.27,2.43-3.78,2.76-4.53,4.07-9.1,8.63-18.08,11.38-27.75,10-28.41,14.51-57.5,13.53-87.28-.33-9.97-1.28-21.99-2.87-36.05-1.04,1.95-1.54,4.25-1.49,6.89.04,2.61-.04,4.53-.24,5.78-2,12.66-2.56,25.4-4.97,37.89-1.02,5.29-2.65,12.78-4.89,22.49-5.31,22.99-13.27,44.64-23.88,64.97-5.41,10.35-11.45,19.6-18.14,27.73-12.31,15.99-26.54,30.03-42.69,42.13-9.29,7.08-19.06,13.48-28.52,20.33-17.05,12.35-35.62,22.96-53.57,33.96-17.19,11.03-32.66,22.68-46.39,34.97-7.41,6.63-14.61,14.54-21.59,23.73-7.77,9.61-14.33,20.09-19.69,31.44-4.62,9.82-8.56,19.95-11.81,30.38-2.03,6.49-3.47,12.98-4.33,19.49-2.02,15.36-2.32,30.82-.91,46.37l.28.08c1.18,10.94,4.06,21.4,8.66,31.38l-.24.13c2.05,5.17,1.78,6.42-.81,3.75-1.61-.04-2.96-.62-4.01-1.99-1.13-1.46-2.32-2.87-3.58-4.22-.44-.47-.43-.61-.03-.48.05.09.14.2.28.35,1.26,1.35,2.45,2.76,3.58,4.22,1.05,1.37,2.4,1.95,4.01,1.99l-3.99-5.18c-.12.02-.22.01-.32.02-5.91-8.09-10.66-16.92-14.24-26.47-8.1-21.62-12.37-42.51-11.86-64.74.21-8.84.31-13.9.32-15.18.11-11.01,1.32-21.89,3.65-32.65,1.16-10.53,4.01-20.44,8.54-29.72.28-1.65-.18-2.79-1.38-3.4-.29-.14-.53-.38-.67-.67-.4-.81-.83-1.59-1.29-2.36-.11-.18-.25-.27-.43-.26-.16.01-.28-.06-.35-.21-2.64-5.46-3.14-9.16-3.44-15.36-.05-.94.43-1.98.16-3.08-.08-.31-.09-.63-.02-.94.42-1.98,1.01-3.91,1.77-5.78.23-.56.55-1.06.96-1.49.22-.24.38-.51.48-.82.82-2.57,2.02-4.94,3.59-7.09.33-.44.57-.95.74-1.53.16-.56.36-1.11.59-1.64.32-.72.16-1.19-.49-1.4-3.32,6.08-6.35,12.22-9.11,18.43,0,0-1.44,3.25-2.8,6.56-9.79,23.83-14.13,46.19-14.13,46.19-4.49,23.12-4.64,41.76-3.54,56.56.71,9.56,3.12,19.61,5.09,29.69.09.45-.02.84-.31,1.18l-.26.31c-.18.2-.51.11-.56-.16-1.4-7.56-3.34-15.82-5.81-24.77-3.01-10.92-4.66-22.17-5.17-33.48-.27-5.87-.23-11.76.05-17.64.14-2.89,2.54-12-.18-13.98-.64,6.01-1.28,12.02-1.92,18.02-1.63,15.28-2.38,25.5-2.34,34.24.12,29.75,11.76,56.25,12.74,58.52-1.07-.84-2.9-1.98-4.56-3.94-19.46-22.89-28.46-54.59-26.19-84.25.93-12.23,2.24-22.89,3.93-32,2.16-11.63,6.8-23.1,11.02-34.24,1.15-3.04.43-6.23,2.6-9.21,1.13-1.55,1.86-2.74,2.19-3.56,1.13-2.83,2.31-5.63,3.54-8.42,3.1-7.05,8.41-13.41,12.81-19.81.06-.09.2-.07.24.03.12.34.98.08,2.58-.77.19-1.21.2-2.34.02-3.41-.11-.67-.95-.9-1.39-.39-13.66,15.8-24.06,34.41-32.67,52.59-7.72,16.31-13.16,35.17-16.47,53.22-.99,5.43-1.58,10.61-1.76,15.56-1.35,36.61,17.31,74.47,39.39,103.45,16.07,21.08,33.2,41.44,50,61.95,14.17,17.81,28.4,35.58,42.69,53.31,6.03,7.48,12.1,14.93,18.21,22.36,3.63,4.42,7.02,9.42,10.58,14.12.35-.3.47-.66.34-1.07-.05-.16-.13-.26-.25-.29-.11-.03-.23.02-.34.14-.08.09-.12.07-.12-.05v-.46c0-.14.17-.2.26-.09.51.62,1.15.84,1.9.67.37-.09.71-.02,1.02.2,2.65,1.9,4.34,3.42,5.09,4.56,1.53,2.34,2.75,4.04,3.64,5.11.25.3.62.45,1.09.44.34,0,.46-.16.35-.48-.09-.25-.25-.47-.49-.65-.13-.1-.22-.2-.28-.31-.17-.35-.1-.39.23-.12,1.95,1.63,3.64,3.51,5.07,5.64.61.93,1.34,1.74,2.17,2.44.82.69,1.59,1.44,2.32,2.23,1.76,1.91,4.14,2.42,5.6,4.3.73.95,1.37,1.95,1.94,3.01.11.21.05.32-.19.33h-.43c-.31.02-.6-.06-.87-.23l-1.4-.96c-.15-.1-.34-.07-.46.06-.11.13-.11.33.01.46.77.85,1.51,1.69,2.23,2.52.69.8,1.57,1.37,2.63,1.71,2.12.69,6.52,1.5,8.1,2.85.46.39.97.78,1.52,1.15.19.13.39.2.61.22l4.64.42c.13.01.16-.04.1-.15-.09-.16-.14-.34-.14-.54,0-.31-.12-.56-.37-.75-.23-.18-.46-.4-.71-.66-.38-.42-.29-.64.28-.67l16.48-.92c.37-.02.72-.14,1.03-.35.91-.64,1.86-1.2,2.84-1.69,1.2-.59,2.08-1.1,2.63-1.53,2.52-1.93,4.79-4.11,6.8-6.56.17-.21.3-.19.41.06l.11.28c.03.07.05.06.07,0,.4-1.47,1.27-2.57,2.6-3.28.23-.12.24-.24,0-.37-.09-.05-.18-.09-.26-.13-.09-.04-.11-.16-.04-.23.39-.38.85-.59,1.36-.64.4-.04.71-.22.94-.55.87-1.25,1.23-2.61,1.09-4.07-.03-.38.1-.45.39-.21l.67.55c.11.09.17.22.18.36l.1,2.77c2.37-30.3,16.24-56.1,33.76-79.73,3.3-4.45,7.28-8.84,10.96-13.25,3.08-3.69,5.94-6.89,8.59-9.58,12.96-13.19,23.16-22.22,39.21-36.17,8.3-7.22,17.39-16.32,27.27-27.29,5.13-5.7,9.72-12,14.44-18.22,40.93-54.02,54.9-119.13,41.37-185.97ZM283.42,722.95c-.64,2.35-.97,4.96-1.61,7.48-.14.54-.33.92-.58,1.14-.37.33-.95.11-1.02-.38-.67-4.88-.86-9.75-.59-14.61,2.73-49.03,20.8-93.71,59.44-126.04,11.08-9.63,19.41-16.43,25-20.39,8.21-5.83,16.41-11.66,24.62-17.5,5.23-3.72,11.44-7.47,17.04-11.38l3.62-2.19c.39-.24.9.04.9.5.07,7.89.22,15.86.47,23.9.11,3.4-1.96,2.87-3.96,4.43-26.53,20.59-53.06,44.46-76.09,70.3-16.53,18.55-32.02,40.96-41.48,64.41-2.52,6.25-3.92,13.5-5.76,20.33ZM344.65,847.35c-2.08,8.96-1.25,16.75-1.26,25.75-8.78-8.98-16.84-18.3-24.18-27.97-10.59-13.94-19.08-28.22-21.93-45.82-2.75-16.95-2.9-33.95-.47-50.98,2.07-14.48,5.25-28.83,11.37-42.09,9.74-24.02,24.03-43.34,41.19-62.41,16.58-18.43,32.54-32.49,49.42-48.23,3.09-2.89,6.52-5.37,9.3-8.56.85-.97,1.84-1.76,2.96-2.36l.19,35.61.03,31.01-.56,105.52c-.01.84-.39,1.64-1.05,2.17-3.43,2.72-7.04,5.44-10.23,8.42-24.39,22.81-46.9,46.48-54.78,79.94ZM410.23,864.04c-3.53,5.25-6.81,10.82-9.82,16.73l-4.35,9.19-4.32,9.53c.12,1.37-.25,2.56-1.12,3.57-.21.23-.28.5-.22.81.12.6-.1,1.07-.65,1.42-.25.15-.39.43-.37.72.03.75-.17,1.4-.62,1.95-.25.31-.37.65-.38,1.04-.03.83-.27,1.57-.72,2.22-.19.27-.3.56-.35.89-.55,3.74-1.88,6.78-4,9.13-.52.83-.95,1.95-1.29,3.35-.15.63-.41,1.07-.76,1.34-.36.27-.87.14-1.07-.26-6.39-12.84-13.03-24.3-16.73-39.07-2.32-9.25-3.03-18.59-2.13-28.04l2.53-14.31c7.53-24.44,22.47-43.66,40.69-61.34,2.14-2.07,3.92-4.2,5.85-6.4.63-.73.95-.61.95.35.09,25.99.01,52.18-.24,78.59-.02,2.29.79,6.11-.88,8.59ZM422.58,555.56l.41-25.61c2.69-1.22,4.36-2.03,5.02-2.43,15.02-9.05,30.76-19.67,43.14-32.14,6.84-6.89,12.46-11.4,18.49-17.6.36-.37.97.01.8.5l-.17.47c-4.74,7.27-9.29,13.58-13.65,18.93-18.36,22.54-34.88,39.1-53.11,58.26-.63.67-.94.54-.93-.38ZM582.35,626.6l-4.17,19.66c.5,2.07.12,3.56-1.14,4.47l-1.84,6.22-3.58,10.6c-10.45,26.85-25.96,52.49-44.68,72.46l-35.95,33.85c-16.68,14.53-32.3,30.34-46.86,47.41l-18.77,24.44-.48-39.42-.15-43.28c0-.48.22-.93.6-1.22,30.41-23.44,62.54-46.02,87.17-74.75l1.26-1.47,8.38-9.89c14.51-17.57,26.48-38.21,36.43-58.66l9.27-21.98c7.34-20.61,11.38-41.82,13.74-64.07.01-.03.07-.16.19-.39.05-.11.14-.16.25-.13.08.02.12.07.13.15,1.13,8.1.78,16.1,1.6,24.79,2.25,23.74,2.56,47.89-1.4,71.21Z"/>
      <path class="cls-15" d="M537.56,563.15c-.23-4.12.01-8.15-.27-12.23-.33-4.88-.36-9.63-1.03-14.48-.7-5.08-1.49-10.14-2.37-15.19-1.76-10.1-3.89-20.13-6.37-30.07-3.25-12.98-6.49-26.07-11.42-38.53-2.9,4.45-4.65,9.54-6.62,14.47-2.87,7.18-6.14,14.26-9.79,21.07-.51.95-1.03,1.9-1.56,2.84-2.86,5.07-5.64,9.9-8.34,14.49l-6.11,9.66c-9.49,14.01-20.39,26.88-32.72,38.62-1.74,1.89-5.19,5.19-10.36,9.9-6.07,5.53-12.14,10.83-18.2,15.91-.5.42-.75.96-.75,1.62l.07,99.32.07,69.99c0,.25.29.39.49.23,3.34-2.67,7.06-5.19,10.2-7.72,8.45-6.79,17.74-13.8,25.26-20.39,16.65-14.57,31.37-29.76,44.37-46.99,8.13-10.65,15.06-22,20.79-34.03,7.54-19.18,12.69-40,13.93-60.58.36-5.97,1.06-11.94.73-17.92Z"/>
      <g class="cls-32">
        <path class="cls-2" d="M281.48,395.94l.05-1.36c0-.26.11-.31.32-.14.09.08.19.16.28.25.17.17.3.38.37.65,1.55,5.66,4.48,10.41,8.79,14.24.7.62,1.6,1.13,2.69,1.54,2.7,1,4.51,2.22,7.37,2.46,2.83.25,5.66.29,8.49.12,2.16-.13,3.38-1.37,5.12-2.44,1.4-.87,2.51-1.68,3.33-2.43,1.47-1.35,2.34-2.43,2.61-3.24,3.04-9.11.1-16.98-1.82-27.33-.32-1.73-1.23-3.08-1.45-4.9-.38-3.01-1.05-6.22-.79-9.18.11-1.35.29-2.68.53-4.01.52-2.87,1.02-5.75,1.51-8.63.39-2.33.24-4.54.2-6.88-.01-.35-.18-.58-.52-.68-1.57-.44-2.8-1.5-4.35-1.4-1.57.09-2.88.73-3.93,1.9-2.17,2.43-4.43,4.17-6.79,5.24"/>
      </g>
      <path class="cls-27" d="M326.69,121.3c.89.73.92,2.09.05,2.85-4.76,4.16-14.33-.39-17.6-4.94-5.68-7.94-1.41-19.4,4.89-25.73.68-.68,1.37-1.01,2.06-1,.43,0,.71.46.52.85-1.87,3.87-2.54,7.91-1.99,12.14,1,7.68,6.6,11.32,12.07,15.83Z"/>
      <path class="cls-16" d="M544.92,189.8c-2.6-11.06-14.87-16.77-23.52-23.05-.22-.16-.53.02-.5.3l.48,3.96c-.39,6.46-.45,18.58,2.31,23.96,1.61,3.12,5.93,9.01,9.57,9.02,4.87.02,8.43-2.55,10.69-7.7,1.15-2.18,1.48-4.34.97-6.49Z"/>
      <path class="cls-27" d="M289.13,180.94c-8.15,12.12-9.65,33.7-2.35,46.5.13.22-.09.49-.33.41-9.04-2.71-20.39-10.5-19.93-21.18.52-12.09,12.3-22.72,22.28-27.95.37-.17.75-.26,1.16-.25.33.01.45.17.36.49-.21.75-.61,1.41-1.19,1.98Z"/>
      <g class="cls-18">
        <path class="cls-3" d="M600.43,392.8c1.81-4.82,2.73-9.68,2.78-14.59.02-2.51-1.16-3.51-1.54-5.73-.05-.28-.18-.51-.39-.7-.73-.62-1.31-1.35-1.74-2.2-.12-.25-.29-.46-.52-.63-.26-.19-.45-.43-.58-.72-.13-.31-.33-.57-.59-.78-.7-.57-1.49-.92-2.37-1.07-.31-.05-.59-.17-.85-.34l-6.15-4.15c-.37-.26-.56-.7-.48-1.14.05-.28.02-.51-.09-.7-.17-.32-.33-.31-.47.03-.2.48-.29.99-.26,1.52,0,.01,0,.01-.04.01-.02,0-.04,0-.06-.01-.06-.01-.09-.04-.08-.1.21-1.99-.15-3.83-1.07-5.54"/>
      </g>
      <path class="cls-12" d="M280.21,303.27c-3.01-7.79-4.62-15.83-4.82-24.1-.12-4.97.9-10.13,1.76-15.2.46-2.67,1.02-4.62,1.67-5.85,1.52-2.87,1.08-3.17-1.31-.9-12.64,11.98-22.83,25.58-28.7,42.23-5.54,15.75-1.97,33.75,15.66,39.17,12.27,3.78,20.58-5.78,20.8-17.09.11-5.88-2.82-12.47-5.06-18.26Z"/>
      <g>
        <path class="cls-11" d="M416.14,367.27c-.03.46-.04.93-.03,1.4.08-.53.08-.98.03-1.4Z"/>
        <path class="cls-10" d="M434.33,320.16c-.63-6.96-1.89-13.53-3.77-19.7-5.96-19.62-14.74-38.68-22.67-57.95-7.94-21.38-11.33-44.75-6.51-66.5,2.46-11.13,7.42-21.81,14.88-32.04,6.39-8.77,11.61-19.16,15.64-31.15,2.43-10.57,3.3-20.35,2.59-29.36-2.29-28.87-11.61-55.96-27.97-81.26-.64-.98-1.35-1.67-2.14-2.08-.49-.25-.68-.11-.55.43l2.86,12.27c3.36,18.08,3.44,38.03,1.68,56.16-1.39,16.94-7.63,28.88-16.82,42.78-5.03,7.6-12.24,16.11-16.11,22.14-5.43,8.45-9.63,17.39-12.58,26.8-.41,1.31.02,1.63,1.3.94.35-.19.94-.7,1.75-1.54,3.89-4.05,7.75-8.11,11.59-12.2,4.99-5.32,12.13-11.83,17.61-18.24,1.37-1.59,1.9-1.35,1.59.73-.06.41-.44,1.19-1.15,2.35-4.21,6.89-8.35,13.83-12.41,20.81-5.15,8.85-8.84,17.56-12.75,27.71-5.68,14.78-11.13,31.94-11.79,47.4-.64,15.33,2.54,30.33,8.2,44.56,1.69,4.27,5.85,12.69,12.46,25.27l2.26,4.51,2.56,5.82c5,11.41,7.98,21.78,8.93,31.13,1.63,16.09-.07,33.16-5.1,51.21-.19.67-.32,1.28-.39,1.84-.05.35.34.58.63.38,5.43-3.9,11.48-7.76,15.91-12.22,4.25-4.28,7.99-9.07,11.22-14.37.21-.34.73-.26.82.13.02.11.02.24.04.35.37-6.56,4.27-12.2,8.97-17.1l2.44-3.46c.25-.36.49-.35.71.03.19.33.19.92.01,1.76.52-2.25,1-4.02,2.09-6.24,3.31-6.72,4.64-13.89,3.99-21.52-.04-.21-.05-.41-.02-.58Z"/>
      </g>
      <path class="cls-7" d="M324.35,327.22c-.42-.26-.97-.19-1.29.18l-19.57,22.32c-11.4,11.79-24.08,28.87-22.01,46.22,2.36,17.5,25.41,26.88,38.25,13.47,8.4-8.77,2.75-22.23.51-32.33-3.61-16.25,1.36-31.81,4.58-48.12.17-.86.01-1.44-.47-1.74Z"/>
      <path class="cls-15" d="M428.27,348.5c-1.77,13.7-1.35,26.06-1.23,41.28.01.81-.31,1.69-.26,2.69l-11.26,7.92c-.61-.05-.79-.51-.55-1.4l1.14-30.32c-.15-7.16,3.97-13.25,9-18.5l2.44-3.46c.25-.36.49-.35.71.03.19.33.19.92.01,1.76Z"/>
      <path class="cls-8" d="M584.75,345.57c-.27-.22-.66.01-.6.35l1.78,10.04c.44,6.99-.58,13.64-3.06,19.97-1.49,3.81-4.35,8.31-6.42,12.5-3.22,6.53,5.66,8.71,9.86,9.53,5.42,1.06,10.66-.97,14.12-5.16,13.14-15.88-3.63-37.26-15.68-47.23Z"/>
      <path class="cls-26" d="M165.92,378.74c3.7,3.98,5.84,11.05,7.18,16.21,1.5,5.76,1.71,12.35.63,19.76-1.2,8.26-8.47,16.02-17.35,16.24-6.9.17-12.71-4.69-13.22-11.8-.66-9.36,12.22-18.01,18.22-24.07,5.04-5.07,4.61-9.58,4.15-16.17-.03-.43.1-.48.39-.17Z"/>
      <path class="cls-27" d="M222.84,462.5c-3.56,10.76-4.7,22.43-3.91,33.7.41,5.96,2.2,11.37,5.36,16.23.29.44-.06,1.02-.59.97-12.11-1.07-23.69-9.11-23.21-22.52.44-12.46,11.53-23.31,21.53-29.05.85-.49,1.13-.26.82.67Z"/>
      <path class="cls-6" d="M234.79,528.37c-1.62,6.85-3.38,13.63-5.3,20.33-4.57,16.04-8.06,32.35-10.24,48.81-2.05,15.47-4.35,30.19-5.9,45.7-.34,3.43-1.02,6.83-1.53,10.24-3.14,21.39.87,43.12,6.49,64.07,1.25,4.65,2.66,7.93,3.31,9.39,1.33,2.96,2.64,5.26,3.48,6.65-.34-.18-.68-.37-1.03-.55l-3.78-3.58c-22.16-23.94-32.41-57.1-29.83-88.12,1.06-12.79,2.55-23.94,4.48-33.47,2.46-12.16,7.74-24.16,12.55-35.81,1.31-3.18.49-6.52,2.96-9.63,1.29-1.62,2.12-2.87,2.49-3.72,1.29-2.96,2.63-5.89,4.03-8.81,3.53-7.37,9.58-14.03,14.59-20.72.07-.09.23-.07.27.03.14.36,1.12.08,2.94-.81Z"/>
      <path class="cls-5" d="M525.04,323.48l-.3-.23c-.27-.2-.65-.11-.8.19-5.36,10.39-10.65,18.57-15.88,24.55-7.69,8.78-15.28,17.51-23.47,25.89-12.99,13.28-25.92,26.49-39.27,39.41l-33.23,29.19-15.75,12.74-6.82,5.37-14.82,11.41-38.68,30.49-15.56,13.1-10.33,8.89c-9.01,8.44-17.61,16.05-26.27,25.8l-10.22,12c-8.92,10.46-16.3,21.87-22.14,34.22-4.53,9.28-7.38,19.19-8.54,29.72l.54.46c.29.25.51.19.65-.16,1.09-2.76,3.37-4.85,4.61-6.9,2.36-3.89,4.68-7.8,6.95-11.73,10.37-17.99,22.97-34.59,37.18-49.3,1.83-1.9,5.95-6,12.36-12.3l31.69-27.39,71.17-55.71c21.01-16.86,41.09-35.57,59.91-55.38,9.55-10.06,16.1-17.37,19.66-21.93,9.09-11.65,15.75-20.92,19.97-27.81,3.29-5.37,8.47-14.99,15.56-28.84.84-1.65,1.38-3.46,2-5.19.08-.23.02-.41-.17-.56Z"/>
      <path class="cls-25" d="M702.18,641.69l-.25-.52c-.05-.1-.09-.1-.1,0-.02.15-.13.24-.32.27-.25-.98-.2-1.6.14-1.85.25-.18.44-.14.59.13.25.44.23,1.09-.06,1.96Z"/>
      <path class="cls-25" d="M708.37,641.71l.8,8.06c0,.51-.07.89-.21,1.13-.13.23-.2.22-.21-.05l-.38-9.14Z"/>
      <path class="cls-20" d="M578.43,646.14c.5,2.07.12,3.56-1.14,4.47l1.14-4.47Z"/>
      <path class="cls-19" d="M522.39,675.56l-.28,3.28c-.02.31-.14.57-.35.79l-2.07,2.19c-.28.29-.42.24-.43-.17-.01-.13.01-.26.06-.38.03-.08.01-.09-.05-.03l-.8.69c-.23.2-.42.44-.56.71-.72,1.45-1.7,2.7-2.95,3.76-.32.27-.58.25-.77-.06-.05-.1-.07-.21-.05-.31.05-.25,0-.44-.13-.58l8.38-9.89Z"/>
      <g>
        <path class="cls-9" d="M411.3,584.56c-1.12.6-2.11,1.39-2.96,2.36-2.78,3.19-6.21,5.67-9.3,8.56-16.88,15.74-32.84,29.8-49.42,48.23-17.16,19.07-31.45,38.39-41.19,62.41-6.12,13.26-9.3,27.61-11.37,42.09-2.43,17.03-2.28,34.03.47,50.98,2.85,17.6,11.34,31.88,21.93,45.82,7.34,9.67,15.4,18.99,24.18,27.97.01-9-.82-16.79,1.26-25.75,7.88-33.46,30.39-57.13,54.78-79.94,3.19-2.98,6.8-5.7,10.23-8.42.66-.53,1.04-1.33,1.05-2.17l.56-105.52-.03-31.01-.19-35.61Z"/>
        <path class="cls-22" d="M537.56,563.18c-.23-4.12.01-8.15-.27-12.23-.33-4.88-.36-9.63-1.03-14.48-.7-5.08-1.49-10.14-2.37-15.19-1.76-10.1-3.89-20.13-6.37-30.07-3-12.01-6.18-24.18-10.37-35.81-.43-1.19-.8-2.16-1.04-2.78-.45.68-.9,1.35-1.35,2.03-5.02,12.13-10.17,24.97-16.63,36.41-2.86,5.07-5.64,9.9-8.34,14.49l-6.11,9.66c-9.49,14.01-20.39,26.88-32.72,38.62-1.74,1.89-5.19,5.19-10.36,9.9-6.07,5.53-12.14,10.83-18.2,15.91-.5.42-.75.96-.75,1.62l.07,99.32.07,69.99c0,.25.29.39.49.23,3.34-2.67,7.06-5.19,10.2-7.72,8.45-6.79,17.74-13.8,25.26-20.39,16.65-14.57,31.37-29.76,44.37-46.99,8.13-10.65,15.06-22,20.79-34.03,7.54-19.18,12.69-40,13.93-60.58.36-5.97,1.06-11.94.73-17.92Z"/>
      </g>
      <path class="cls-23" d="M584,555.27c-.82-8.69-.47-16.69-1.6-24.79-.01-.08-.05-.13-.13-.15-.11-.03-.2.02-.25.13-.12.23-.18.36-.19.39-2.36,22.25-6.4,43.46-13.74,64.07l-9.27,21.98c-9.95,20.45-21.92,41.09-36.43,58.66l-.28,3.28c-.02.31-.14.57-.35.79l-2.07,2.19c-.28.29-.42.24-.43-.17-.01-.13.01-.26.06-.38.03-.08.01-.09-.05-.03l-.8.69c-.23.2-.42.44-.56.71-.72,1.45-1.7,2.7-2.95,3.76-.32.27-.58.25-.77-.06-.05-.1-.07-.21-.05-.31.05-.25,0-.44-.13-.58l-1.26,1.47c-24.63,28.73-56.76,51.31-87.17,74.75-.38.29-.6.74-.6,1.22l.15,43.28.48,39.42,18.77-24.44c14.56-17.07,30.18-32.88,46.86-47.41l35.95-33.85c18.72-19.97,34.23-45.61,44.68-72.46l3.58-10.6,1.84-6.22,1.14-4.47,4.17-19.66c3.96-23.32,3.65-47.47,1.4-71.21Z"/>
      <path class="cls-17" d="M411.6,776.74c0-.96-.32-1.08-.95-.35-1.93,2.2-3.71,4.33-5.85,6.4-18.22,17.68-33.16,36.9-40.69,61.34l-2.53,14.31c-.9,9.45-.19,18.79,2.13,28.04,3.7,14.77,10.34,26.23,16.73,39.07.2.4.71.53,1.07.26.35-.27.61-.71.76-1.34.34-1.4.77-2.52,1.29-3.35,2.26-7.58,5.07-14.83,8.43-21.75l4.32-9.53,4.35-9.19c3.01-5.91,6.29-11.48,9.82-16.73,1.67-2.48.86-6.3.88-8.59.25-26.41.33-52.6.24-78.59Z"/>
      <circle class="cls-15" cx="610.28" cy="905.5" r="15"/>
      <path class="cls-15" d="M433.6,959.76c-2.59,3.58-9.02,10.53-8.22,15.13.07.39.48.61.85.46.78-.33,1.46-.87,2.05-1.64,30.23-39.82,68.44-73.79,109.72-101.79,1.53-1.04,2.7-1.75,3.52-2.14.1-.05.13-.12.08-.22l-.11-.24c-.11-.25-.29-.32-.54-.21-2.9,1.2-6.03,2.89-9.4,5.07-8.73,5.65-19.47,11.62-27.8,17.37-27.71,19.14-50.3,40.73-70.15,68.21ZM98.11,780.48c.25.53.1.71-.47.54-11.97-3.71-21.95-9.6-32.35-17.38-13.12-9.82-24.07-21.66-32.75-35.59-2.22-3.57-4.38-7.17-6.48-10.8-.34-.59-.65-.96-.92-1.11-.65-.38-.87-.2-.67.54,2.54,9.33,6.87,18.25,13.51,31.89,3.23,6.64,7.71,14.24,11.6,19.98,6.94,10.24,14.33,19.06,22.18,26.47,46.85,44.23,114.28,43.62,167.71,75.31,33.9,20.12,63.79,45.9,88.67,76.8,11.07,13.76,18.03,25.15,26.31,38.48,3.31,5.32,6.11,10.93,9.11,16.49.1.19.36.24.52.09l.2-.16c.27-.24.34-.62.19-.94-1.14-2.41-1.79-3.96-1.95-4.63-1.19-5.11-2.79-10.09-4.82-14.94-7.95-19.01-17.83-36.96-29.63-53.85-6.44-9.23-12.22-16.44-17.34-21.63-5.43-5.49-10.75-11.61-16.18-16.48-31.24-28.05-67.77-48.6-102.76-71.4-11.88-7.75-20.01-13.18-24.38-16.3-25.57-18.26-49.44-40.21-66.84-66.56-7.49-11.34-13.24-22.12-17.26-32.33-8.35-21.22-12.1-40.57-14-61.58-.53-5.79-1.01-5.79-1.46,0-.18,2.33-.6,5.82-.53,8.76.37,13.73.35,28.26,2.12,41.26,2.57,18.87,6.66,38.04,13.91,55.77,4.63,11.31,9.55,22.41,14.76,33.3M339.53,906.73c.35-.3.47-.66.34-1.07-.05-.16-.13-.26-.25-.29-.11-.03-.23.02-.34.14-.08.09-.12.07-.12-.05v-.46c0-.14.17-.2.26-.09.51.62,1.15.84,1.9.67.37-.09.71-.02,1.02.2,2.65,1.9,4.34,3.42,5.09,4.56,1.53,2.34,2.75,4.04,3.64,5.11.25.3.62.45,1.09.44.34,0,.46-.16.35-.48-.09-.25-.25-.47-.49-.65-.13-.1-.22-.2-.28-.31-.17-.35-.1-.39.23-.12,1.95,1.63,3.64,3.51,5.07,5.64.61.93,1.34,1.74,2.17,2.44.82.69,1.59,1.44,2.32,2.23,1.76,1.91,4.14,2.42,5.6,4.3.73.95,1.37,1.95,1.94,3.01.11.21.05.32-.19.33h-.43c-.31.02-.6-.06-.87-.23l-1.4-.96c-.15-.1-.34-.07-.46.06-.11.13-.11.33.01.46.77.85,1.51,1.69,2.23,2.52.69.8,1.57,1.37,2.63,1.71,2.12.69,6.52,1.5,8.1,2.85.46.39.97.78,1.52,1.15.19.13.39.2.61.22l4.64.42c.13.01.16-.04.1-.15-.09-.16-.14-.34-.14-.54,0-.31-.12-.56-.37-.75-.23-.18-.46-.4-.71-.66-.38-.42-.29-.64.28-.67l16.48-.92c.37-.02.72-.14,1.03-.35.91-.64,1.86-1.2,2.84-1.69,1.2-.59,2.08-1.1,2.63-1.53,2.52-1.93,4.79-4.11,6.8-6.56.17-.21.3-.19.41.06l.11.28c.03.07.05.06.07,0,.4-1.47,1.27-2.57,2.6-3.28.23-.12.24-.24,0-.37-.09-.05-.18-.09-.26-.13-.09-.04-.11-.16-.04-.23.39-.38.85-.59,1.36-.64.4-.04.71-.22.94-.55.87-1.25,1.23-2.61,1.09-4.07-.03-.38.1-.45.39-.21l.67.55c.11.09.17.22.18.36l.1,2.77c-1.43,8.96-2.08,18.21-1.93,27.75.01.76.33.94.98.54.25-.15.55-.5.91-1.06,15.97-24.46,38.59-44.78,63.25-60.19,19.45-12.15,37.8-21.32,55.07-27.49,16.34-5.85,39.89-12.31,60.43-17.8,35.45-9.47,71.72-21.76,98.58-47.98,8-7.81,15.37-16.55,22.11-26.21,9.73-14.57,17.87-31.06,24.53-47.23.77-1.87,1.29-3.78,1.58-5.73.2-1.38-.02-1.45-.67-.22-15.16,28.63-39.61,51.73-69.87,63.67-.85.33-1.65.59-2.4.77-.35.08-.63-.29-.46-.61,1.51-2.78,2.85-5.63,4.01-8.54,3.66-9.17,7.41-18.3,11.24-27.39,3.03-7.17,4.62-16.68,6.74-25.03,2.62-10.32,3.68-21.26,4.84-32.27,1.54-14.72,1.75-29.83.5-44.48.29-.87.31-1.52.06-1.96-.15-.27-.34-.31-.59-.13-.34.25-.39.87-.14,1.85-1.05,11.13-2.07,19.29-3.08,24.46-1.18,6.01-3.47,14.36-6.88,25.04-7.13,19.53-17.03,37.57-29.7,54.1-11.43,14.91-23.08,27.59-34.94,38.04-22.66,19.94-49.2,36.86-74.11,52.41-6.49,4.05-21.56,12.8-45.22,26.27-6.03,3.43-13.35,9.01-20.47,13.52-6.31,3.99-12.46,8.24-18.45,12.73-.15.12-.3.18-.45.17-.1,0-.19-.02-.27-.05-.15-.06-.2-.25-.1-.38,4.42-6.01,10.53-11.19,16.05-16.15,3.74-3.35,8.93-7.49,15.57-12.4,15.51-11.49,30.72-23.12,46.54-34.46,8.17-5.85,17.57-12.81,28.2-20.87,47.68-36.16,93.78-88.86,108.87-147.75,2.58-10.07,4.26-16.81,3.87-25.38-.02-.32-.34-.55-.65-.45-.47.15-.83.53-1.06,1.14-5.14,13.45-14.22,19.05-27.2,23.77-1.29.47-1.59.12-.88-1.06,3.49-5.8,7.42-12.06,10.03-17.88,6.92-15.46,9.86-31.98,8.82-49.55-.84-14.14-2.91-27.54-7.14-40.57-.93-2.87-1.86-5.73-2.78-8.6-5.34-16.58-11.89-29.15-22.11-46.6-.81-1.39-2.92-4.2-6.33-8.45-.15-.19-.13-.47.05-.64l.2-.19c.29-.27.73-.27,1.02-.01,25.67,23.22,43.66,55.54,54.99,88.79,8.1,23.79,11.24,47.28,14.47,71.26l.38,9.14c.01.27.08.28.21.05.14-.24.21-.62.21-1.13.75,17.25.23,33.82-1.55,49.69-1.4,12.53-5.43,24.92-8.67,37.4-.18.69.08.94.77.75.78-.22,1.61-.79,2.5-1.7,28.66-29.51,47.15-68.49,48.66-109.95,1.23-33.84-13.1-65.15-37.83-88.48-.49-.59-1.04-1.14-1.64-1.65-.4-.34-.54-.73-.41-1.17.13-.42.38-.52.75-.29l1.8,1.08c3.9,3.12,8.28,6.08,11.78,9.25,13.21,11.98,22.62,24.45,30.51,40.18,11.7,23.3,17.33,51.45,17.21,77.41-.23,50.31-18.41,98.79-47.5,138.96-27.46,37.91-63.56,63.15-107.28,78.94-10.41,3.77-19,6.75-28.56,11.11-9.62,4.4-19.72,8.85-28.61,13.76-36.13,20-69.14,45.67-96.08,77.09-4.69,5.46-9.36,11.94-14.03,17.99-8.91,11.56-17.16,23.58-24.74,36.05-7.44,12.25-12.71,21.4-15.81,27.45-5.8,11.33-19.61,39.13-41.42,83.4l-2.16,3.37c-.46.72-1.56.57-1.8-.25-.2-.68-.13-1.49.21-2.44,1.79-15.19,2.2-30.2,1.25-45.01-1.46-22.87-4.2-45.52-13.25-67-24.07-57.17-66.53-99.46-121.64-127.59-16.67-8.51-30.04-14.77-40.11-18.76-9.61-3.81-22.53-5.99-31.9-9.25-47.87-16.68-87.36-45.63-116.06-87.86-17.5-25.73-29.88-55.36-37.13-85.61-4.89-20.45-6.65-41.18-5.26-62.19,1.83-27.77,10.74-52.98,26.71-75.62,7.75-10.98,18.3-22.45,29.96-29.29.33-.19.73.1.65.47-.16.76-.59,1.47-1.29,2.13-9.6,9.03-17.75,19.87-23.99,31.29-22.67,41.48-12.54,93.89,11.71,131.92,8.64,13.54,14.6,21.44,25.46,31.24,1.48,1.34,2.83,2.33,4.06,2.98.26.14.53-.16.37-.41-6.11-9.43-8.74-23.85-10.52-35.45-3.95-25.61-3.94-50.37.15-75.56,1.16-7.08,2.19-14.35,3.98-21.17,4.77-18.15,10.53-35.49,17.29-52.02,10.66-26.07,27.62-50.88,46.21-72.11,10.33-11.8,22.07-22.52,35.97-29.97.75-.4,1.36-.67,1.84-.82.98-.29,1.18-.02.6.82-.5.73-1.15,1.46-1.96,2.17-3.61,3.23-7.02,6.66-10.21,10.3-10.76,12.25-17.38,20.3-19.86,24.16-5.18,8.07-11.33,16.51-15.51,24.27-16.17,30.08-27.52,64.11-22.53,98.38,2.05,14.09,7.51,26.28,14.08,38.25.56,1.03.95,2.01,1.17,2.94.1.42-.28.81-.71.71-13.11-3.05-22.11-10.8-26.98-23.23-.15-.38-.58-.57-.96-.41-.47.19-.77.67-.9,1.43-.45,2.69-.45,5.38-.02,8.09,2.6,16.32,5.68,30.71,12.4,47.02,10.33,25.03,24.44,47.4,42.65,67.38,9.47,10.39,18.42,19.08,26.83,26.06,35.44,29.4,75.12,53.64,111.11,81.41,11.19,8.63,23.31,18.88,33.34,29.02,36.98,37.38,61.7,81.93,74.17,133.66.51,2.15,1.18,3.62,1.99,4.42.81.81,1.21.64,1.2-.51-.04-2.9-.38-6.06-1.02-9.47-2.31-12.31-5.27-24.46-8.89-36.47-2.92-9.68-8.05-21.62-15.4-35.81-6.13-11.85-14.15-25.15-24.08-39.92"/>
      <path class="cls-20" d="M391.99,899.37c.12,1.37-.25,2.56-1.12,3.57-.21.23-.28.5-.22.81.12.6-.1,1.07-.65,1.42-.25.15-.39.43-.37.72.03.75-.17,1.4-.62,1.95-.25.31-.37.65-.38,1.04-.03.83-.27,1.57-.72,2.22-.19.27-.3.56-.35.89-.55,3.74-1.88,6.78-4,9.13,2.26-7.58,5.07-14.83,8.43-21.75Z"/>
      <path class="cls-24" d="M544.39,286.66c-.73-13.6-2.93-27.17-6.6-40.71l-1.56-6.13c-.26-1.02-1.69-1.06-2-.06-.07.23-.13.55-.16.96-.52,14.37-4.94,28.9-11.37,41.89-9.09,17.57-20.11,33.86-33.07,48.87l-24.86,27.21c-8.87,8.43-19.7,18.19-32.49,29.29-2.55,2.21-4.38,3.71-5.5,4.49l-11.26,7.92c-.61-.05-.79-.51-.55-1.4-.87,1.42-2.29,2.88-4.27,4.39-19.51,14.81-39.02,29.63-58.53,44.46-5.81,4.41-11.07,8.51-15.79,12.28-14.79,11.81-28.8,23.63-35.23,29.46-9.93,8.99-28.02,27.32-49.43,60.89-1.08,2.07-1.98,3.74-2.58,4.84-.78,1.51-1.46,2.85-2.02,3.99,0,0-1.31,2.64-2.55,5.3-.22.47-.44.94-.44.94s-.26.57-.52,1.14c-.68,1.49-1.36,3.04-1.4,3.12,0,0-.66,1.5-1.29,2.99-.6,1.42-4.02,10.01-4.81,12.26-2.31,6.55-5.15,23.75-1.74,44.42.83,5.02,2.3,11.91,5.11,19.91,2.22-13.02,4.43-26.05,6.65-39.07,2.83-8.3,7.09-18.33,13.59-28.97,4.62-7.56,9.45-13.89,13.91-19.07l10.22-12c8.66-9.75,17.26-17.36,26.27-25.8l10.33-8.89,15.56-13.1,38.68-30.49,14.82-11.41,6.82-5.37,15.75-12.74,33.23-29.19c13.35-12.92,26.28-26.13,39.27-39.41,8.19-8.38,15.78-17.11,23.47-25.89,5.23-5.98,10.52-14.16,15.88-24.55.15-.3.53-.39.8-.19l.3.23c.19.15.25.33.17.56-.62,1.73-1.16,3.54-2,5.19-7.09,13.85-12.27,23.47-15.56,28.84-4.22,6.89-10.88,16.16-19.97,27.81-3.56,4.56-10.11,11.87-19.66,21.93-18.82,19.81-38.9,38.52-59.91,55.38l-71.17,55.71-31.69,27.39c-6.41,6.3-10.53,10.4-12.36,12.3-14.21,14.71-26.81,31.31-37.18,49.3-2.27,3.93-4.59,7.84-6.95,11.73-1.24,2.05-3.52,4.14-4.61,6.9-.14.35-.36.41-.65.16l-.54-.46c-.65,2.95-1.49,7.2-2.18,12.37-.95,7.11-1.18,12.64-1.47,20.28-.22,5.61-.33,11.46-.32,15.18.06,18.32.14,41.83,10.71,65.89,2.82,6.42,7.53,15.5,15.47,25.43l3.99,5.18c2.59,2.67,2.86,1.42.81-3.75-4.63-10.04-7.52-20.57-8.69-31.59-1.41-15.55-1.11-31.01.91-46.37.86-6.51,2.3-13,4.33-19.49,3.25-10.43,7.19-20.56,11.81-30.38,5.36-11.35,11.92-21.83,19.69-31.44,6.98-9.19,14.18-17.1,21.59-23.73,13.73-12.29,29.2-23.94,46.39-34.97,17.95-11,36.52-21.61,53.57-33.96,9.46-6.85,19.23-13.25,28.52-20.33,16.15-12.1,30.38-26.14,42.69-42.13,6.69-8.13,12.73-17.38,18.14-27.73,10.61-20.33,18.57-41.98,23.88-64.97,2.24-9.71,3.87-17.2,4.89-22.49,2.41-12.49,2.97-25.23,4.97-37.89.2-1.25.28-3.17.24-5.78-.05-2.64.45-4.94,1.49-6.89Z"/>
    </g>
    <g>
      <text class="cls-14" transform="translate(820.02 930.18) scale(.83 1)"><tspan x="0" y="0">Hotcodes : Au cœur de l&apos;innovation, l&apos;Afrique code son avenir.</tspan></text>
      <text class="cls-13" transform="translate(1046.04 699.15) scale(.83 1)"><tspan class="cls-31" x="0" y="0">H</tspan><tspan class="cls-29" x="240.09" y="0">o</tspan><tspan class="cls-28" x="494.71" y="0">t</tspan><tspan class="cls-29" x="704.05" y="0">C</tspan><tspan class="cls-31" x="937.15" y="0">od</tspan><tspan class="cls-30" x="1437.45" y="0">e</tspan><tspan class="cls-21" x="1674.74" y="0">s</tspan></text>
      <line class="cls-4" x1="1541.48" y1="789.03" x2="2151.13" y2="789.03"/>
    </g>
  </g>
</svg>